HIERARCHY
ROOT root
{
	OFFSET 0.000000 0.000000 0.000000
	CHANNELS 6 Xposition Yposition Zposition Zrotation Yrotation Xrotation
	JOINT lhip
	{
		OFFSET 0.058581 -0.082280 -0.017664
		CHANNELS 3 Zrotation Yrotation Xrotation
		JOINT lknee
		{
			OFFSET 0.043451 -0.386469 0.008037
			CHANNELS 3 Zrotation Yrotation Xrotation
			JOINT lankle
			{
				OFFSET -0.014790 -0.426874 -0.037428
				CHANNELS 3 Zrotation Yrotation Xrotation
				JOINT ltoe
				{
					OFFSET 0.041054 -0.060286 0.122042
					CHANNELS 3 Zrotation Yrotation Xrotation
					End Site
					{
						OFFSET 0.000000 0.000000 0.000000
					}
				}
			}
		}
	}
	JOINT rhip
	{
		OFFSET -0.060310 -0.090513 -0.013543
		CHANNELS 3 Zrotation Yrotation Xrotation
		JOINT rknee
		{
			OFFSET -0.043257 -0.383688 -0.004843
			CHANNELS 3 Zrotation Yrotation Xrotation
			JOINT rankle
			{
				OFFSET 0.019056 -0.420046 -0.034562
				CHANNELS 3 Zrotation Yrotation Xrotation
				JOINT rtoe
				{
					OFFSET -0.034840 -0.062106 0.130323
					CHANNELS 3 Zrotation Yrotation Xrotation
					End Site
					{
						OFFSET 0.000000 0.000000 0.000000
					}
				}
			}
		}
	}
	JOINT lowerback
	{
		OFFSET 0.004439 0.124404 -0.038385
		CHANNELS 3 Zrotation Yrotation Xrotation
		JOINT upperback
		{
			OFFSET 0.004488 0.137956 0.026820
			CHANNELS 3 Zrotation Yrotation Xrotation
			JOINT chest
			{
				OFFSET -0.002265 0.056032 0.002855
				CHANNELS 3 Zrotation Yrotation Xrotation
				JOINT lowerneck
				{
					OFFSET -0.013390 0.211636 -0.033468
					CHANNELS 3 Zrotation Yrotation Xrotation
					JOINT upperneck
					{
						OFFSET 0.010113 0.088937 0.050410
						CHANNELS 3 Zrotation Yrotation Xrotation
						End Site
						{
							OFFSET 0.000000 0.000000 0.000000
						}
					}
				}
				JOINT lclavicle
				{
					OFFSET 0.071702 0.114000 -0.018898
					CHANNELS 3 Zrotation Yrotation Xrotation
					JOINT lshoulder
					{
						OFFSET 0.122921 0.045205 -0.019046
						CHANNELS 3 Zrotation Yrotation Xrotation
						JOINT lelbow
						{
							OFFSET 0.255332 -0.015649 -0.022946
							CHANNELS 3 Zrotation Yrotation Xrotation
							JOINT lwrist
							{
								OFFSET 0.265709 0.012698 -0.007375
								CHANNELS 3 Zrotation Yrotation Xrotation
								End Site
								{
									OFFSET 0.000000 0.000000 0.000000
								}
							}
						}
					}
				}
				JOINT rclavicle
				{
					OFFSET -0.082954 0.112472 -0.023707
					CHANNELS 3 Zrotation Yrotation Xrotation
					JOINT rshoulder
					{
						OFFSET -0.113228 0.046853 -0.008472
						CHANNELS 3 Zrotation Yrotation Xrotation
						JOINT relbow
						{
							OFFSET -0.260127 -0.014369 -0.031269
							CHANNELS 3 Zrotation Yrotation Xrotation
							JOINT rwrist
							{
								OFFSET -0.269108 0.006794 -0.006027
								CHANNELS 3 Zrotation Yrotation Xrotation
								End Site
								{
									OFFSET 0.000000 0.000000 0.000000
								}
							}
						}
					}
				}
			}
		}
	}
}
MOTION
Frames: 10
Frame Time: 0.033333
0.024243 0.215623 0.994391 110.002318 -2.295418 85.044331 0.475584 -10.907303 -4.452967 -4.460328 -5.480820 20.509019 3.215206 4.100807 -12.764378 0.000000 -0.000000 0.000000 -5.189733 -4.872350 2.803606 -1.894952 -12.213766 17.769886 -0.469804 -8.181863 -15.880962 0.000000 -0.000000 0.000000 -5.170081 4.264880 2.508185 2.932973 -4.377094 11.055259 0.605814 -0.639901 -3.344339 0.405499 0.017253 -4.019424 3.934237 -3.666243 -3.167520 -1.378354 4.179720 0.528870 -75.648092 -22.345654 33.465392 167.185197 -46.052566 -169.088081 -40.838238 -38.755460 -41.761049 5.292020 3.661986 -1.190264 70.544570 12.162424 24.511210 -162.661324 43.602189 -169.985576 51.311983 42.468042 -53.689245 
0.024356 0.216210 0.994658 109.468465 -2.167825 84.982851 0.531634 -10.718074 -4.272645 -4.338647 -5.282018 20.583491 3.261269 4.169719 -12.927583 0.000000 -0.000000 0.000000 -5.107659 -4.739572 2.821498 -1.898291 -12.052542 17.788994 -0.480471 -7.974598 -15.846135 0.000000 -0.000000 0.000000 -5.183794 4.158379 2.566505 3.016350 -4.469114 11.473452 0.711354 -0.657364 -3.654352 0.339493 0.219916 -4.722726 4.137192 -3.769751 -4.646559 -1.215176 3.744057 0.722333 -75.822662 -22.267035 33.313598 167.286586 -46.049606 -169.072645 -40.915427 -38.879161 -41.691930 5.322989 4.337832 -0.855090 70.210857 12.402514 24.308152 -162.465834 43.393776 -169.728670 51.244494 42.507118 -53.535764 
0.023563 0.216663 0.994553 108.573160 -2.068541 84.808086 0.575851 -10.601095 -3.974552 -4.290196 -4.828479 20.595335 3.362681 4.495492 -13.005499 0.000000 -0.000000 0.000000 -5.061212 -4.379066 2.741725 -1.870738 -11.678964 17.981071 -0.476520 -7.765639 -15.810014 0.000000 -0.000000 0.000000 -5.048558 4.144859 2.856898 2.982764 -4.447975 11.916621 0.709526 -0.682878 -3.923330 0.529703 0.525520 -5.179099 4.237298 -3.813837 -5.469759 -0.987100 3.190729 0.970192 -75.867286 -22.224920 33.021996 167.283528 -45.888974 -168.604473 -40.641963 -38.924563 -41.831865 5.113316 4.932881 -0.716705 70.412293 12.458465 24.168007 -162.302506 43.211492 -169.310892 50.778738 42.732877 -54.195100 
0.023114 0.217536 0.994075 107.526371 -1.993624 84.722482 0.599451 -10.171108 -3.731308 -4.199663 -4.424616 20.621251 3.440641 4.641469 -13.220799 0.000000 -0.000000 0.000000 -5.152759 -4.218969 2.546728 -1.772148 -11.191029 18.198470 -0.378945 -7.354988 -15.852238 0.000000 -0.000000 0.000000 -4.887139 4.027984 2.733215 2.958970 -4.401376 12.375612 0.590528 -0.520939 -3.947093 0.623180 0.481708 -4.900283 4.373142 -3.732927 -5.646954 -1.180016 3.167893 0.792503 -75.726153 -22.290755 33.120500 167.284736 -45.868866 -168.587187 -40.771193 -38.785432 -41.885581 5.122948 4.913677 -0.791014 70.355997 12.579656 24.157216 -162.396223 43.217005 -169.489671 51.096016 42.750589 -54.196380 
0.022951 0.218241 0.993735 106.549667 -1.914723 84.527660 0.596875 -9.911408 -3.381827 -4.121484 -4.016761 20.698539 3.473203 4.946736 -13.451349 0.000000 -0.000000 0.000000 -5.232041 -4.062179 2.523299 -1.688011 -10.876845 18.386708 -0.204395 -6.897873 -15.914500 0.000000 -0.000000 0.000000 -4.871821 3.962443 2.700403 3.128718 -4.483544 12.562188 0.565472 -0.571598 -3.780062 0.372277 0.158627 -3.673955 4.450088 -3.575873 -5.702550 -1.439467 3.223741 0.911914 -75.455542 -22.425359 33.063191 167.677942 -45.740670 -169.052754 -40.601068 -38.611424 -41.979528 5.490607 4.810310 -0.948881 69.814148 12.917880 24.142515 -162.742220 43.036326 -169.773102 51.196498 41.889018 -53.113128 
0.022582 0.218560 0.993297 105.569502 -1.840429 84.334120 0.623298 -9.568087 -3.053690 -3.987530 -3.480453 20.733934 3.424748 4.928343 -13.631404 0.000000 -0.000000 0.000000 -5.291764 -3.805227 2.431129 -1.651253 -10.692696 18.672637 -0.072221 -6.219526 -15.998262 0.000000 -0.000000 0.000000 -4.949574 3.838265 2.117033 3.291435 -4.523827 13.084451 0.511128 -0.551962 -3.283316 -0.033894 0.219792 -1.419932 4.694572 -3.822573 -6.066484 -1.486138 3.691156 0.132196 -75.495499 -22.534659 33.651274 167.933058 -45.931887 -169.465813 -40.447408 -38.713717 -41.868892 5.865662 4.480667 -1.611814 69.406135 13.146784 24.590858 -162.774265 42.899483 -170.051140 51.051961 42.078281 -52.857454 
0.023018 0.218656 0.992808 104.634458 -1.775531 84.043140 0.613715 -9.337345 -2.593832 -3.858868 -2.915599 20.838420 3.241557 5.042282 -13.958192 0.000000 -0.000000 0.000000 -5.298596 -3.633662 2.525609 -1.758687 -10.520567 18.948355 0.197997 -5.651000 -16.081570 0.000000 -0.000000 0.000000 -5.046555 3.681983 1.468390 3.457467 -4.733560 13.214579 0.486803 -0.668855 -2.205302 -0.702933 0.230698 1.833929 5.090804 -3.694486 -7.098494 -1.516765 4.511666 -0.858518 -75.750033 -22.534719 34.264574 168.199415 -46.170550 -169.856464 -40.889377 -39.244042 -41.674417 6.219321 3.843473 -2.852216 69.091467 13.501334 25.198124 -162.603391 43.272200 -169.899355 52.295392 42.959413 -52.892260 
0.023203 0.218648 0.992288 103.656664 -1.723952 83.701388 0.595982 -8.992617 -2.072968 -3.766842 -2.506321 20.911068 3.115714 5.103249 -14.236761 0.000000 -0.000000 0.000000 -5.336489 -3.337370 2.565681 -1.796957 -10.254897 19.344984 0.455667 -5.086744 -16.193586 0.000000 -0.000000 0.000000 -5.076768 3.471835 1.023069 3.525056 -4.895181 13.030682 0.445154 -0.732159 -1.210694 -1.583612 0.511325 6.132163 5.660252 -3.506609 -8.203292 -1.709267 4.919507 -2.067741 -75.490434 -22.127912 34.789153 168.617761 -46.315559 -170.350631 -40.481521 -39.376628 -41.705545 6.508864 3.476382 -4.085006 68.508766 13.231124 25.738815 -163.005672 43.174214 -170.842512 52.261401 43.114058 -53.067439 
0.024478 0.219118 0.991578 102.635757 -1.701484 83.188928 0.469630 -8.501599 -1.171287 -3.613925 -2.092964 20.815111 2.929117 5.148149 -14.634008 0.000000 -0.000000 0.000000 -5.572917 -3.266670 2.971769 -1.715572 -9.990936 19.536371 0.741542 -4.352755 -16.294842 0.000000 -0.000000 0.000000 -4.792088 3.212892 0.191323 3.399995 -5.103860 13.005730 0.138614 -0.838197 0.313373 -2.595674 0.839132 10.942705 6.228657 -3.137246 -10.033918 -1.771504 5.786749 -3.395643 -75.525311 -22.037078 34.949344 169.217993 -46.499712 -171.219661 -40.587953 -39.925802 -41.588128 6.228902 2.751314 -5.650055 68.635422 13.115856 26.115788 -163.318780 43.690081 -172.295288 52.764710 43.997583 -53.024815 
0.025366 0.219183 0.991071 101.653998 -1.706292 82.641090 0.369129 -8.000145 -0.332610 -3.468205 -1.689422 20.865849 2.706791 5.113541 -15.068468 0.000000 -0.000000 0.000000 -5.801309 -3.233868 3.355214 -1.741415 -9.772236 19.824765 1.060894 -3.497361 -16.387260 0.000000 -0.000000 0.000000 -4.669312 2.949358 -0.427702 3.320737 -5.266433 12.959417 -0.035388 -0.968928 1.720281 -3.536090 1.248893 15.960287 6.684145 -2.651905 -12.262509 -1.750415 6.676048 -4.562015 -75.656535 -21.717890 35.346148 169.781094 -46.428810 -172.287755 -40.124148 -39.834237 -41.652680 5.983159 1.930148 -6.812988 68.630100 13.279222 26.432988 -164.078188 44.028570 -174.004586 52.992475 44.272714 -52.615641 
